<svg xmlns="http://www.w3.org/2000/svg" xmlns:xlink="http://www.w3.org/1999/xlink" fill="none" version="1.1" width="24" height="24" viewBox="0 0 24 24"><g><g><path d="M12.914354781951904,12.50013287460327L17.706314781951903,17.29211287460327C18.096914781951902,17.682712874603272,18.096914781951902,18.31581287460327,17.706314781951903,18.70631287460327C17.315814781951904,19.09691287460327,16.682714781951905,19.09691287460327,16.292114781951902,18.70631287460327L11.500134781951903,13.91435287460327L6.707134781951904,18.70731287460327C6.3166147819519045,19.09791287460327,5.683446781951904,19.09791287460327,5.292922781951904,18.70731287460327C4.902398581951904,18.316812874603272,4.902398581951904,17.68361287460327,5.292922781951904,17.293112874603274L10.085924781951904,12.50013287460327L5.292922781951904,7.707132874603271C4.902398581951904,7.316612874603272,4.902398581951904,6.683442874603271,5.292922781951904,6.292918874603272C5.683446781951904,5.902394774603271,6.3166147819519045,5.902394774603271,6.707134781951904,6.292918874603272L11.500134781951903,11.085922874603272L16.292114781951902,6.293912874603271C16.682714781951905,5.903388874603271,17.315814781951904,5.9033889746032715,17.706314781951903,6.293912874603271C18.096914781951902,6.6844378746032715,18.096914781951902,7.3176028746032715,17.706314781951903,7.708122874603271L12.914354781951904,12.50013287460327Z" fill-rule="evenodd" fill="#222222" fill-opacity="1"/></g></g></svg>