<svg xmlns="http://www.w3.org/2000/svg" xmlns:xlink="http://www.w3.org/1999/xlink" fill="none" version="1.1" width="24" height="24" viewBox="0 0 24 24"><g><g><path d="M11.999999523162842,3L19.999999523162842,3Q20.19889952316284,3,20.38269952316284,3.0761205Q20.566499523162843,3.152241,20.707099523162842,3.292893L20.70739952316284,3.293143L20.70779952316284,3.293626Q20.85549952316284,3.4413270000000002,20.93179952316284,3.635803Q21.00799952316284,3.830278,20.999999523162842,4.03901L20.999999523162842,12Q20.999999523162842,12.09849,20.98079952316284,12.19509Q20.961599523162842,12.29169,20.92389952316284,12.38268Q20.88619952316284,12.47368,20.83149952316284,12.55557Q20.776699523162844,12.63746,20.707099523162842,12.70711Q20.63749952316284,12.77675,20.55559952316284,12.83147Q20.473699523162843,12.88619,20.38269952316284,12.92388Q20.29169952316284,12.96157,20.195099523162842,12.98078Q20.098499523162843,13,19.999999523162842,13Q19.90149952316284,13,19.80489952316284,12.98078Q19.708299523162843,12.96157,19.617299523162842,12.92388Q19.52629952316284,12.88619,19.444399523162843,12.83147Q19.362499523162843,12.77675,19.29289952316284,12.70711Q19.22319952316284,12.63746,19.168499523162843,12.55557Q19.113799523162843,12.47368,19.076099523162842,12.38268Q19.03839952316284,12.29169,19.019199523162843,12.19509Q18.999999523162842,12.09849,18.999999523162842,12L18.999999523162842,6.41568L10.708479523162842,14.7072Q10.638829523162842,14.7768,10.556939523162843,14.8316Q10.475049523162841,14.8863,10.384049523162842,14.924Q10.293059523162842,14.9617,10.196459523162842,14.9809Q10.099859523162841,15.0001,10.001369523162841,15.0001Q9.902879523162841,15.0001,9.806279523162843,14.9809Q9.70967952316284,14.9617,9.618679523162843,14.924Q9.527689523162842,14.8863,9.445799523162842,14.8316Q9.363909523162842,14.7768,9.294259523162843,14.7072Q9.224619523162842,14.6376,9.169899523162842,14.5557Q9.11517952316284,14.4738,9.077489523162843,14.3828Q9.039799523162841,14.2918,9.02057952316284,14.1952Q9.001369523162841,14.0986,9.001369523162841,14.0001Q9.001369523162841,13.9016,9.02057952316284,13.805Q9.039799523162841,13.7084,9.077489523162843,13.6174Q9.11517952316284,13.5264,9.169899523162842,13.4445Q9.224619523162842,13.3626,9.294259523162843,13.293L17.58729952316284,5L11.999999523162842,5Q11.901509523162842,5,11.804909523162841,4.98079Q11.708309523162843,4.96157,11.617319523162841,4.9238800000000005Q11.526319523162842,4.88619,11.444429523162842,4.8314699999999995Q11.362539523162841,4.77675,11.292889523162842,4.70711Q11.223249523162842,4.63746,11.168529523162842,4.5555699999999995Q11.113809523162843,4.47368,11.076119523162841,4.38268Q11.038429523162842,4.29169,11.019209523162841,4.19509Q10.999999523162842,4.09849,10.999999523162842,4Q10.999999523162842,3.901509,11.019209523162841,3.80491Q11.038429523162842,3.708311,11.076119523162841,3.6173159999999998Q11.113809523162843,3.526322,11.168529523162842,3.44443Q11.223249523162842,3.362537,11.292889523162842,3.292893Q11.362539523162841,3.223249,11.444429523162842,3.16853Q11.526319523162842,3.113811,11.617319523162841,3.0761205Q11.708309523162843,3.0384294,11.804909523162841,3.0192147Q11.901509523162842,3,11.999999523162842,3ZM10.008729523162842,10.101600000000001Q9.512239523162842,10,8.999999523162842,10Q6.928929523162842,10,5.464469523162842,11.46447Q3.999999523162842,12.92893,3.999999523162842,15Q3.999999523162842,17.0711,5.464469523162842,18.5355Q6.928929523162842,20,8.999999523162842,20Q11.071069523162842,20,12.535499523162843,18.5355Q13.999999523162842,17.0711,13.999999523162842,15Q13.999999523162842,14.4878,13.898399523162842,13.9913Q13.878099523162842,13.8921,13.878099523162842,13.7908Q13.878099523162842,13.6923,13.897299523162841,13.5957Q13.916499523162841,13.4991,13.954199523162842,13.4081Q13.991899523162841,13.3171,14.046599523162842,13.2352Q14.101299523162842,13.1533,14.170999523162841,13.0837Q14.240599523162842,13.014,14.322499523162842,12.95932Q14.404399523162843,12.9046,14.495399523162842,12.86691Q14.586399523162841,12.82922,14.682999523162842,12.81001Q14.779599523162842,12.79079,14.878099523162842,12.79079Q14.963899523162842,12.79079,15.048399523162843,12.8054Q15.132899523162841,12.82,15.213699523162841,12.84878Q15.294499523162841,12.87757,15.369199523162841,12.91969Q15.443899523162841,12.96181,15.510399523162842,13.016Q15.576799523162842,13.0703,15.633099523162842,13.135Q15.689299523162841,13.1998,15.733699523162842,13.2732Q15.778099523162842,13.3465,15.809399523162842,13.4264Q15.840599523162842,13.5063,15.857799523162841,13.5903Q15.999999523162842,14.2852,15.999999523162842,15Q15.999999523162842,17.8995,13.949699523162842,19.9497Q11.899499523162842,22,8.999999523162842,22Q6.100499523162842,22,4.050249523162842,19.9497Q1.9999995231628418,17.8995,1.9999995231628418,15Q1.9999995231628418,12.1005,4.050249523162842,10.05025Q6.100499523162842,8,8.999999523162842,8Q9.714769523162841,8,10.409689523162841,8.142199999999999Q10.493709523162842,8.15939,10.573579523162842,8.19065Q10.653459523162843,8.2219,10.726839523162841,8.266300000000001Q10.800229523162843,8.310690000000001,10.864979523162841,8.36694Q10.929729523162841,8.42318,10.983959523162842,8.48963Q11.038189523162842,8.55608,11.080309523162843,8.630790000000001Q11.122429523162841,8.70551,11.151209523162843,8.7863Q11.179999523162842,8.8671,11.194599523162841,8.951609999999999Q11.209209523162842,9.03613,11.209209523162842,9.1219Q11.209209523162842,9.22039,11.189989523162842,9.31699Q11.170779523162842,9.41359,11.133089523162841,9.50458Q11.095399523162842,9.59557,11.040679523162842,9.67747Q10.985959523162842,9.759360000000001,10.916319523162842,9.829Q10.846669523162841,9.89865,10.764779523162842,9.95337Q10.682889523162842,10.00809,10.591889523162841,10.04578Q10.500899523162841,10.08347,10.404299523162841,10.10268Q10.307699523162842,10.1219,10.209209523162842,10.1219Q10.107939523162841,10.1219,10.008729523162842,10.101600000000001Z" fill-rule="evenodd" fill="#222222" fill-opacity="1"/></g></g></svg>