<svg xmlns="http://www.w3.org/2000/svg" xmlns:xlink="http://www.w3.org/1999/xlink" fill="none" version="1.1" width="24" height="24" viewBox="0 0 24 24"><g transform="matrix(-1,-5.2146120310681e-8,5.2146120310681e-8,-1,47.99999874849311,48.00000125150689)"><g><path d="M43.62556267089844,36.78223385742187Q43.59496267089844,36.81948385742187,43.56076267089844,36.853603857421874L43.56076267089844,36.85366385742188L43.55816267089844,36.856253857421876L39.20726267089844,41.20715385742187L37.70698267089844,42.70695385742187L37.70686267089844,42.707053857421876Q37.637212670898435,42.77665385742188,37.555322670898434,42.831353857421874Q37.47343267089844,42.88605385742187,37.38244267089844,42.92375385742187Q37.29145267089844,42.96145385742187,37.19486267089844,42.98065385742187Q37.09827267089844,42.999853857421876,36.99979267089844,42.999853857421876Q36.901312670898434,42.999853857421876,36.804722670898435,42.980553857421874Q36.70814267089844,42.96135385742188,36.617152670898435,42.923653857421876Q36.52617267089844,42.885953857421875,36.444292670898434,42.83125385742187Q36.362412670898436,42.776553857421874,36.29277267089844,42.70695385742187Q36.22313267089844,42.637253857421875,36.168412670898434,42.55535385742188Q36.11369267089844,42.47345385742187,36.07600267089844,42.38245385742188Q36.038312670898435,42.291553857421874,36.01909267089844,42.19495385742188Q35.99988267089844,42.09835385742188,35.99988267089844,41.999853857421876Q35.99988267089844,41.901353857421874,36.01909267089844,41.80475385742187Q36.038312670898435,41.70815385742188,36.07600267089844,41.617153857421876Q36.11369267089844,41.526153857421875,36.168412670898434,41.44425385742188Q36.22313267089844,41.36235385742187,36.29277267089844,41.29275385742187L36.29289267089844,41.29255385742188L37.79304267089844,39.79295385742188L40.439462670898436,37.14651385742187L29.49982967089844,37.14631385742187Q29.300921670898436,37.14631385742187,29.117155670898438,37.07019385742188Q28.93338967089844,36.994073857421874,28.79274067089844,36.85342385742187Q28.72309667089844,36.78377385742188,28.668377670898437,36.701883857421876Q28.613658670898438,36.619993857421875,28.575968170898438,36.52900385742188Q28.538277170898436,36.438003857421876,28.519062470898437,36.341403857421874Q28.499847798598438,36.24480385742187,28.499847831798437,36.14631385742187Q28.499847864998436,36.047823857421875,28.519062570898438,35.95122385742187Q28.538277370898438,35.85462385742188,28.575968470898438,35.76363385742187Q28.61365967089844,35.67263385742187,28.668378670898438,35.59074385742188Q28.723097670898436,35.508853857421876,28.792741670898437,35.439213857421876Q28.93339667089844,35.29855385742187,29.117172670898437,35.222433857421876Q29.300949670898436,35.14631385742187,29.499862670898438,35.14631385742187L40.439462670898436,35.14651385742187L36.64651267089844,31.353563857421875Q36.50586267089844,31.212903857421875,36.429742670898435,31.029133857421876Q36.35362267089844,30.845363857421876,36.35362267089844,30.646453857421875Q36.35362267089844,30.447541857421875,36.429742670898435,30.263770857421875Q36.50586267089844,30.079999857421875,36.64651267089844,29.939346857421874Q36.787172670898435,29.798694857421875,36.97094267089844,29.722574357421873Q37.154712670898434,29.646453857421875,37.35362267089844,29.646453857421875Q37.55253267089844,29.646453857421875,37.73630267089844,29.722574357421873Q37.920072670898435,29.798694857421875,38.06073267089844,29.939346857421874L43.55606267089844,35.43472385742187Q43.558462670898436,35.43704385742188,43.56076267089844,35.43938385742187Q43.62616267089844,35.504733857421876,43.67836267089844,35.58094385742187Q43.73066267089844,35.657153857421875,43.76806267089844,35.74165385742187Q43.805462670898436,35.826143857421876,43.82676267089844,35.91607385742188Q43.848062670898436,36.00599385742188,43.852562670898436,36.09829385742187Q43.85696267089844,36.190593857421874,43.84446267089844,36.282153857421875Q43.83186267089844,36.373713857421876,43.80276267089844,36.461413857421874Q43.77366267089844,36.549123857421876,43.729062670898436,36.63001385742187Q43.68436267089844,36.710903857421876,43.62556267089844,36.78223385742187Z" fill-rule="evenodd" fill="#222222" fill-opacity="1"/></g></g></svg>