<svg xmlns="http://www.w3.org/2000/svg" xmlns:xlink="http://www.w3.org/1999/xlink" fill="none" version="1.1" width="24" height="24" viewBox="0 0 24 24"><g><g transform="matrix(0,-1,1,0,-10.5859375,27.914794921875)"><path d="M8.9573517109375,20.9574462109375L15.457628710937499,27.4573862109375C15.4711487109375,27.4708962109375,15.4849487109375,27.4839362109375,15.4990187109375,27.4965162109375C15.5130987109375,27.5124962109375,15.5277687109375,27.5281462109375,15.5430487109375,27.5434162109375C15.9335687109375,27.9339362109375,16.5667287109375,27.9339362109375,16.9572787109375,27.5433962109375L23.4572287109375,21.0430962109375C23.8477287109375,20.6525662109375,23.8477287109375,20.0194192109375,23.4572287109375,19.6289022109375C23.0667287109375,19.2383780109375,22.4335287109375,19.2383780109375,22.042928710937503,19.6289212109375L16.2504287109375,25.4217862109375L10.3715287109375,19.5431982109375C9.9809987109375,19.1526915109375,9.3478497109375,19.1526999109375,8.9573327109375,19.5432172109375C8.5668082109375,19.9337412109375,8.5668082109375,20.5669062109375,8.9573517109375,20.9574462109375Z" fill-rule="evenodd" fill="#222222" fill-opacity="1"/></g></g></svg>