<svg xmlns="http://www.w3.org/2000/svg" xmlns:xlink="http://www.w3.org/1999/xlink" fill="none" version="1.1" width="73.47625732421875" height="42.35704040527344" viewBox="0 0 73.47625732421875 42.35704040527344"><g><path d="M0.00463407,16.9245C0.0551927,27.6934,1.0158,30.5752,1.2686,31.5864C1.52139,32.5976,2.482,33.0021,2.63368,31.4347C3.24038,25.4688,8.70069,24.3566,9.96466,23.9015C11.1275,23.4971,11.4309,24.0026,10.268,25.1655C9.10516,26.3283,8.34678,28.199,8.29623,30.5247C8.19511,35.53,11.8859,40.2319,16.4867,40.8386C21.0875,41.4959,32.9182,40.5858,37.4179,40.7375C37.3674,41.2936,37.3168,42.4059,37.9235,42.3554C38.5808,42.3048,38.5302,42.3048,39.1369,40.8386C42.0693,40.4847,57.338,41.3442,63.2533,40.3836C69.2192,39.423,73.7189,35.7828,73.4661,26.2272C73.2133,16.7222,66.9946,13.6381,60.422,13.1831Q53.8494,12.7281,25.5367,11.9192L26.7501,4.94209L26.5478,4.58818L26.6995,4.03204Q27.6096,3.93092,27.9635,3.72869C28.3174,3.52645,28.823,1.35244,28.3679,0.543504C27.9129,-0.265431,24.9805,-0.0126385,24.5761,0.290712C24.1716,0.543504,24.3233,2.71752,24.6266,3.42534Q24.93,4.13316,25.6883,3.98148L25.5367,4.53762L25.1828,4.73986L24.0199,11.7675Q14.2621,10.7563,10.0658,9.89682C5.86942,9.03733,3.34149,6.61052,2.83591,5.75103C2.38088,4.89153,2.88647,3.32422,2.68423,2.46473C2.482,1.60523,2.12809,1.50411,1.52139,1.75691C0.307985,2.16137,-0.0459246,10.8069,0.00463407,16.9245ZM37.3168,37.8557C35.8,37.8557,34.2327,37.8557,32.716,37.9062Q32.3115,37.9062,27.7612,37.9062C27.8118,37.3501,27.8624,36.7939,27.8624,36.2378C28.1657,36.2378,28.5196,36.2378,28.823,36.2378C28.9746,36.2378,29.1263,36.2378,29.278,36.2884C29.4297,36.3389,29.5308,36.3895,29.6825,36.4906C30.0869,36.6928,30.4914,36.8951,30.9464,36.9962C32.0587,37.2995,33.2216,37.2995,34.3844,37.1479C34.9405,37.0973,35.4461,36.9962,35.9517,36.8445C36.4067,36.6928,36.7607,36.44,37.2157,36.2884C38.1763,35.985,39.1875,35.9344,40.1481,36.1367C39.9964,36.6423,39.9458,37.1984,40.047,37.7546C40.047,37.8051,37.519,37.8557,37.3168,37.8557ZM24.2727,29.5135C24.121,29.5135,23.9188,29.463,23.8177,29.3113C23.7166,29.109,23.8177,28.8563,24.0199,28.7551C24.2221,28.654,24.4244,28.654,24.6772,28.7046C29.5813,29.0079,34.5361,29.3618,39.3897,29.5641C40.1481,29.6146,40.8559,29.6146,41.5131,29.3113C42.221,29.0079,42.8277,28.5024,43.0299,27.7945C43.1816,27.2384,43.0805,26.4295,43.2321,25.4183C43.2321,25.2666,43.2827,25.1149,43.3333,25.0644C43.3838,24.9633,43.4849,24.9633,43.586,25.0138C45.0017,25.0644,46.4173,25.0644,47.833,25.1149C48.743,25.1149,49.6025,25.1655,50.5126,25.1655C51.4732,25.216,52.4338,25.3172,53.4955,25.3677C53.4955,26.1261,53.3944,27.1878,53.3944,27.5923C53.3438,28.3001,53.2933,29.0585,53.5461,29.7663C53.6472,29.9685,53.7483,30.1708,53.7989,30.373C53.8494,30.5752,53.8494,30.7775,53.8494,30.9797C53.7989,31.8898,53.6977,32.7998,53.6977,33.6593C50.4114,33.811,47.833,33.9121,45.2545,34.0132C45.2039,34.0132,45.1028,34.0132,45.0522,33.9627C45.0017,33.9121,44.9511,33.811,44.9511,33.7099C44.9006,33.4571,44.9006,33.1537,45.1028,32.9515C45.2039,32.8504,45.3556,32.7998,45.4567,32.6987C45.5578,32.5976,45.5578,32.4459,45.6084,32.2942C45.7095,31.5864,45.8612,30.828,45.7095,30.1708C45.6084,29.7158,45.3556,29.2607,44.85,29.2607C44.3444,29.2102,43.94,29.6146,43.7377,30.0697C43.5861,30.4236,43.4849,30.828,43.4849,31.2325C43.4849,31.5864,43.4849,32.0414,43.1816,32.1931C43.0805,32.2437,42.9288,32.2437,42.7771,32.2437C40.957,32.2942,39.1369,32.2942,37.2662,32.1931C36.6595,32.1426,36.0023,32.092,35.4967,31.7886C34.9911,31.4853,34.4855,30.8786,34.2327,30.3225C30.8453,30.1708,27.559,29.918,24.2727,29.5135ZM27.0534,33.2043C26.5478,33.2043,25.9411,33.3054,25.385,33.2548C24.9805,33.2043,24.4749,33.3054,24.0705,33.2043C23.7671,33.1032,23.3627,32.5976,23.8177,32.3954C24.2727,32.1931,24.7783,32.1931,25.2333,32.1426C25.7389,32.1426,26.1939,32.1426,26.5984,32.2942C26.8006,32.3448,27.0029,32.4459,27.1545,32.6481C27.2051,32.6987,27.2051,32.7493,27.2557,32.7998C27.2557,32.8504,27.2557,32.8504,27.3062,32.9009C27.3062,33.0021,27.3062,33.1032,27.2051,33.2043C27.2051,33.1537,27.104,33.2043,27.0534,33.2043ZM56.4785,25.3172C57.0346,25.3172,57.5402,25.3172,57.9952,25.5194C58.1974,25.6205,58.3997,25.7722,58.5514,25.9239C58.703,26.0755,58.8041,26.3283,58.9053,26.5306C59.4614,27.8451,59.4109,29.3113,59.2086,30.6764C59.1075,31.5359,58.9053,32.3448,58.2986,32.9515C57.9952,33.2548,57.5908,33.5582,57.0346,33.6593C56.7313,33.7099,56.4279,33.7099,56.1751,33.7099C55.8212,33.7099,55.4673,33.6593,55.0628,33.6593C55.1134,33.0021,55.1639,32.2437,55.1639,31.5359C55.2145,31.0808,55.1134,30.6258,55.4167,30.1708C55.8212,29.5135,56.1246,29.0079,56.2257,28.4012C56.3268,27.9968,56.3773,26.3283,56.4785,25.3172ZM52.181,37.6534C50.6642,37.6534,49.198,37.6534,47.7318,37.6534C46.0634,37.704,44.3444,37.704,42.7266,37.4006C42.5749,37.3501,42.4232,37.3501,42.3221,37.249C42.221,37.1479,42.1199,37.0467,42.1199,36.8951C42.0187,36.6423,42.0187,36.3389,42.0693,36.0356C42.0693,35.8839,42.1199,35.7828,42.221,35.6817C42.3221,35.5805,42.5243,35.53,42.676,35.53C44.395,35.3277,46.2656,35.4794,48.1363,35.53C48.3891,35.53,48.6924,35.53,48.9452,35.53C50.4114,35.53,51.8776,35.6311,53.3438,35.5805L53.3944,35.5805C53.3944,35.8333,53.4449,37.2995,53.4449,37.5018C53.0405,37.6029,52.636,37.6534,52.181,37.6534ZM57.5908,19.8063C58.1974,19.7557,58.7536,19.7557,59.3603,19.7052C60.2198,19.6546,61.0793,19.6041,61.8882,19.7052C64.1128,20.0591,66.6913,21.8286,67.1463,24.2049C68.6125,27.4406,68.3597,30.5247,67.0452,33.2043C66.4385,34.4683,65.7307,35.6311,64.6184,36.44C63.7083,37.1479,62.3938,37.2995,61.1804,37.4006C59.0064,37.5018,56.7312,37.4006,54.3044,37.5018C54.355,36.8951,54.3044,36.2884,54.355,35.6817C55.9729,35.6817,56.984,35.7828,58.248,35.4794C58.7536,35.3783,59.5625,35.0244,60.2198,34.5188C60.5231,34.3166,60.7759,34.1143,60.9782,33.8615C61.4837,33.356,61.8882,32.6987,62.0399,31.9909C62.3938,30.6764,62.3938,29.3618,62.2421,28.3001C62.0904,27.1878,61.686,26.1767,61.0793,25.3172C60.5737,24.5082,60.1692,24.2554,59.4108,23.9521C58.5008,23.6487,57.4391,23.4465,56.2762,23.3959C54.0516,23.2948,51.8776,23.3454,49.6531,23.4465C49.6531,22.3342,49.7036,21.2219,49.6531,20.1096C52.3327,20.0085,54.9617,19.958,57.5908,19.8063ZM36.8112,20.4635C40.6537,20.2108,44.4455,20.0085,48.3891,20.1096C48.4397,20.1096,48.4902,20.1096,48.5408,20.1602C48.5913,20.2108,48.5913,20.3119,48.5913,20.413C48.5408,20.6658,48.6419,23.3959,48.4397,23.3454C46.2151,23.1432,44.1422,23.1432,42.2715,23.0926C40.4514,23.042,38.5808,22.8398,36.9123,22.2331C36.6595,22.132,36.4067,22.0309,36.2551,21.8286C36.1034,21.6264,36.0023,21.323,36.1034,21.0197C36.2045,20.6152,36.5079,20.5141,36.8112,20.4635ZM28.4691,24.8621C28.5196,24.8621,28.5702,24.8621,28.6713,24.8621C31.907,25.0644,35.2439,25.1655,38.4796,25.3677C39.1369,25.4183,39.7942,25.4183,40.4009,25.57C40.7042,25.6711,40.957,25.7722,41.1087,25.9744C41.2604,26.1767,41.3615,26.4295,41.2098,26.6317C41.0076,26.935,40.4514,26.9856,39.9964,26.9856C38.2774,27.0362,36.3056,26.7834,34.3338,26.6317C33.2721,26.48,32.2104,26.4295,31.1487,26.2778C30.6431,26.2272,30.0869,26.1261,29.5814,25.9744C29.278,25.8733,28.7219,25.7722,28.4691,25.57C28.2163,25.3677,28.2163,24.9633,28.4691,24.8621ZM26.9523,19.4018C27.4579,19.3007,28.014,19.3007,28.5702,19.3513C29.3286,19.4018,29.9858,19.5535,30.542,19.8063C30.5925,19.8568,30.6431,19.8568,30.6936,19.958C30.7442,20.0591,30.6936,20.1602,30.6936,20.2613C30.5925,20.6152,30.3397,20.868,30.0364,21.0197C29.7836,21.1208,29.5308,21.1208,29.278,21.0703C28.5196,21.0197,27.7612,20.9691,27.104,20.6658C26.5478,20.413,25.9917,19.604,26.9523,19.4018ZM16.6384,23.6993Q20.6831,23.4465,21.7953,23.851L20.9864,26.7834L19.5708,27.1878L19.2674,26.6822L17.9023,26.8339L17.599,28.2496L19.1663,28.4518L19.5708,27.9462L20.9864,28.2496L21.037,29.918L19.6213,30.3225L19.1157,29.918L17.4473,29.9686L17.3968,31.4348L19.0652,31.8392L19.5708,31.5359L20.8853,31.6875L20.8853,33.6088L19.6213,33.9121L19.1157,33.5077L17.599,33.7604L17.5484,35.2266L19.2169,35.6311L19.6213,35.1255L20.9358,35.2772L21.0875,35.8839L25.9917,35.9345L25.84,37.9568Q18.8124,38.1085,16.0822,37.8051C13.3521,37.5018,9.9141,34.3166,10.4702,30.4236C11.0264,26.5811,12.5937,23.9521,16.6384,23.6993Z" fill-rule="evenodd" fill="#000000" fill-opacity="1"/></g></svg>